<?xml version="1.0" encoding="UTF-8" standalone="no"?>
<!DOCTYPE svg PUBLIC "-//W3C//DTD SVG 1.1//EN" "http://www.w3.org/Graphics/SVG/1.1/DTD/svg11.dtd">
<svg version="1.1" xmlns="http://www.w3.org/2000/svg" xmlns:xlink="http://www.w3.org/1999/xlink" preserveAspectRatio="xMidYMid meet" viewBox="0 0 640 640" width="664" height="664"><defs><path d="M33.91 316.81L117.68 258.25L139.05 243.27L169.82 219.44L191.19 200.38L105.71 285.49L78.36 314.08L37.33 354.94L15.96 374.68L27.07 360.38L98.87 282.76L125.37 253.48L162.13 215.36L191.19 188.12L204.01 177.23L180.93 205.82L112.55 288.21L80.07 327.7L50.15 361.75L78.36 337.91L155.29 265.74L219.4 210.59L264.71 169.06L199.74 239.87L151.02 285.49L112.55 318.85L99.73 327.7L134.78 280.72L186.06 225.57L210.85 201.74L225.38 186.76L144.18 273.91L109.13 310L88.62 329.06L68.96 345.4L112.55 297.74L136.48 272.55L179.23 226.93L190.34 215.36L183.5 224.21L104 309.32L68.1 344.72L39.04 369.24L23.65 381.49L33.05 370.6L135.63 266.42L160.42 241.23L200.6 206.5L104 302.51L43.31 354.26L4.84 382.85L15.96 368.55L121.95 263.7L158.71 228.97L191.19 200.38L212.56 181.31L158.71 240.55L69.81 333.83L14.25 384.9L-23.36 429.83L-29.35 438.69L42.46 350.17L127.08 273.23L162.13 239.87L182.64 222.85" id="a3ebvKfPK"></path><path d="M449.18 442.6L420.94 417.4L368.98 370.66L327.48 329.64L291.84 283.07L285.97 274.72L325.23 317.4L358.93 354.46L372.76 368.13L396.09 393.2L307.04 308.4L258.7 250.81L268.28 262.9L338.41 346.44L381.93 397.64L396.01 413.37L407.11 424.59L274.63 282.31L258.62 257.07L250.58 244.11L286.46 264.94L419.83 380L499.38 453.4L517.15 472.86L396.66 363.25L356.52 319.99L344.54 308.18L357.56 328.9L427.54 424.97L469.77 479.11L475.16 490.3L420.78 443.84L344.93 367.22L233.12 234.34L204.81 194.56L227.57 221.78L264.41 264.74L294.01 301.59L321.92 330.99L331.9 339.55L276.96 274.39L214.87 182.96L238.6 204.51L331.02 311.16L363.92 348.31L385.23 377.1L326.91 324.84L261.52 247L340.51 329.51L396.41 395.95L452.23 468.65L470.41 491.55L358.12 389.31L277.6 293.78L264.57 273.06L288.79 291.77L342.52 346.65L381.45 400.48L401.88 428.67L390.61 416.09L308.09 317.32L244.95 237.82L219.86 197.66L285.41 262.97L319.76 305.52L344.69 337.36L361.18 359.76L350.32 350.6L197.01 197.56L188.56 188.12L247.52 252.81L335.84 366.2L367.04 409.81L377.98 426.61L317.81 372.48L255.48 299.85L242.37 278.44L278.89 297.8L319.35 336.85L361.42 382.67L391.58 410.42L350.4 372.14L248.64 276.32L200.06 216.67L251.87 248.13L300.77 289.67L342.68 327.17L368.26 350.59L247.84 248.61L129.76 138.71L215.11 212.82L297.88 292.79L322.65 316.31L265.7 261.81L181.4 189.66L256.69 240.62L337.37 309.72L357.56 328.9" id="c1m6lBbEQK"></path><path d="M378.83 406.36L434.83 368.16L462.84 343.39L487.27 315L509.91 280.42L518.25 265.97L458.67 360.42L431.26 400.17L416.96 420.81L405.04 437.84L468.8 340.81L506.93 286.1L534.93 250.48L554.6 231.9L541.49 253.06L450.92 377.46L430.07 399.13L412.19 417.2L405.64 423.91L536.13 315L574.86 279.39L607.63 248.93L626.1 233.45L615.37 252.55L584.98 290.23L518.85 355.78L481.91 391.39L447.35 423.39L440.2 428.55L561.15 248.42L581.41 222.09L573.66 235.51L474.76 363L449.73 394.49L430.66 419.26L505.14 343.91L582.6 264.42L607.63 242.74L622.52 232.93L607.03 253.58L408.02 451.78L388.96 468.81L382.4 474.49L421.13 434.23L503.95 343.39L521.23 322.74L540.3 304.16L456.88 398.1L415.17 446.62L433.64 424.42L477.14 370.75L508.72 330.49L536.13 301.07L554.6 283.52L480.12 353.71L434.83 401.71L407.43 431.65L399.68 439.39L411.6 424.42L450.92 376.94L526 277.84L557.58 245.84L565.92 239.64L524.81 282.48L457.48 354.74L421.73 391.91L405.04 408.42L537.91 269.06L584.39 220.55L598.69 208.16L612.39 198.35L602.26 212.29L505.74 324.81L429.47 407.39L412.19 427.01L393.13 447.65L440.79 388.81L531.36 284.03L567.71 247.39L591.54 229.84L558.17 277.84L468.8 373.33L433.05 413.07L414.58 432.68L409.21 438.88L440.2 407.39L528.98 312.94L562.34 280.94L590.94 253.06L601.07 245.32L596.9 252.55L573.07 284.55L477.73 398.1L446.75 439.39L414.58 478.62L487.86 392.42L531.36 340.81L546.85 323.78L559.96 309.84L506.33 365.07L446.16 427.01L416.36 457.46L409.21 464.17L427.68 436.81L494.42 350.62L530.76 309.84L554.6 283.52L571.28 268.55L483.69 360.94L435.43 408.94L412.19 433.2L400.28 444.04L433.64 395.52L525.4 271.65L574.26 216.42" id="e1KRZlVo9G"></path></defs><g><g><g><use xlink:href="#a3ebvKfPK" opacity="1" fill="#1d3557" fill-opacity="1"></use><g><use xlink:href="#a3ebvKfPK" opacity="1" fill-opacity="0" stroke="#000000" stroke-width="1" stroke-opacity="1"></use></g></g><g><use xlink:href="#c1m6lBbEQK" opacity="1" fill="#a8dadc" fill-opacity="1"></use><g><use xlink:href="#c1m6lBbEQK" opacity="1" fill-opacity="0" stroke="#000000" stroke-width="1" stroke-opacity="1"></use></g></g><g><use xlink:href="#e1KRZlVo9G" opacity="1" fill="#e63946" fill-opacity="1"></use><g><use xlink:href="#e1KRZlVo9G" opacity="1" fill-opacity="0" stroke="#000000" stroke-width="1" stroke-opacity="1"></use></g></g></g></g></svg>